<svg version="1.1" id="Capa_1" xmlns="http://www.w3.org/2000/svg" x="0" y="0" width="98.751" height="98.75" style="enable-background:new 0 0 98.751 98.75" xml:space="preserve"><path id="front_tyre" d="M22.106 46.936a6.865 6.865 0 0 0-6.866 6.866c0 .293.024.58.062.862a6.861 6.861 0 0 0 13.644-.276c.017-.194.03-.389.03-.586a6.867 6.867 0 0 0-6.87-6.866zm-3.439 4.277 1.402 1.4a2.325 2.325 0 0 0-.249.605h-1.975a4.278 4.278 0 0 1 .822-2.005zm-.828 3.194h1.988c.057.212.139.412.25.598l-1.404 1.402a4.292 4.292 0 0 1-.834-2zm3.673 3.66a4.276 4.276 0 0 1-1.99-.824l1.396-1.398c.182.107.385.186.594.24v1.982zm0-6.551a2.47 2.47 0 0 0-.606.254l-1.396-1.398a4.247 4.247 0 0 1 2.003-.83l-.001 1.974zm1.189-1.974a4.25 4.25 0 0 1 2.007.831l-1.397 1.397a2.442 2.442 0 0 0-.609-.254l-.001-1.974zm0 8.525v-1.98a2.41 2.41 0 0 0 .598-.244l1.395 1.4a4.253 4.253 0 0 1-1.993.824zm2.846-1.656-1.407-1.408c.107-.185.198-.382.255-.596h1.972a4.268 4.268 0 0 1-.82 2.004zm-1.152-3.192a2.326 2.326 0 0 0-.247-.605l1.4-1.4c.435.575.721 1.256.823 2.006h-1.976v-.001z"/><path d="M78.029 53.801c0-3.049 1.638-5.717 4.072-7.19l-16.177-7.166H55.775c-.604 0-1.094.49-1.094 1.095v1.438c0 .604.489 1.095 1.094 1.095h.72v.997h-1.841c-.579 0-1.096.371-1.277.921l-.147.439c-3.351-.271-4.945 2.294-6.62 2.294l-1.131-1.361a3.2 3.2 0 0 0-2.758-1.144 4.45 4.45 0 0 0-1.008.211l-.635 2.294s-5.759-.335-13.245-.066a8.385 8.385 0 0 1 2.687 6.146c0 .24.039 5.32.039 5.32h49.383a8.338 8.338 0 0 1-1.84-4.266 8.466 8.466 0 0 1-.073-1.057zM13.695 53.801c0-1.928.659-3.699 1.753-5.12C9.664 49.487 4.044 50.83 0 53.047c0 1.176 5.168.019 5.168 2.448H1.181a.727.727 0 0 0-.728.728v2.172c0 .402.325.729.728.729h9.969a.729.729 0 0 0 .729-.729v-3.354h1.922c-.009-.062-.024-.121-.032-.185a8.056 8.056 0 0 1-.074-1.055zM96.938 38.084H86.284a1.814 1.814 0 0 0-1.815 1.814v2.376c0 .48.191.942.531 1.282l1.855 1.854c4.446.218 8 3.893 8 8.391 0 .111-.012.224-.017.334h3.912V39.899a1.812 1.812 0 0 0-1.812-1.815z"/><path id="back_tyre" d="M86.74 46.936a6.865 6.865 0 0 0-6.866 6.866c0 .293.024.58.062.862a6.862 6.862 0 0 0 13.646-.276c.017-.194.028-.389.028-.586a6.867 6.867 0 0 0-6.87-6.866zm-3.438 4.277 1.401 1.4a2.36 2.36 0 0 0-.249.605h-1.976a4.28 4.28 0 0 1 .824-2.005zm-.829 3.194h1.988c.057.212.139.412.25.598l-1.404 1.402a4.292 4.292 0 0 1-.834-2zm3.673 3.66a4.271 4.271 0 0 1-1.99-.824l1.396-1.396c.183.106.386.185.595.24v1.98zm0-6.551a2.437 2.437 0 0 0-.606.254l-1.396-1.398a4.242 4.242 0 0 1 2.004-.83v1.975h-.002zm1.189-1.974a4.25 4.25 0 0 1 2.007.831l-1.396 1.397a2.442 2.442 0 0 0-.609-.254l-.002-1.974zm0 8.525v-1.98c.212-.057.412-.135.599-.244l1.396 1.4a4.265 4.265 0 0 1-1.995.824zm2.847-1.656-1.408-1.408c.107-.185.199-.382.256-.596h1.972a4.299 4.299 0 0 1-.82 2.004zm-1.153-3.192a2.363 2.363 0 0 0-.248-.605l1.4-1.4c.435.575.721 1.256.822 2.006h-1.974v-.001z"/></svg>