<svg viewBox="0 0 540 540" xmlns="http://www.w3.org/2000/svg"><path d="M270 0A270 270 0 0 0 0 270a270 270 0 0 0 270 270 270 270 0 0 0 270-270A270 270 0 0 0 270 0zm0 154.78A115.22 115.22 0 0 1 385.22 270 115.22 115.22 0 0 1 270 385.22 115.22 115.22 0 0 1 154.78 270 115.22 115.22 0 0 1 270 154.78z" fill="#333"/><path d="m400.87 87.207-10.629 17.012a205 205 0 0 1 84.76 165.78 205 205 0 0 1-34.215 113.16l15.842 12.377a225 225 0 0 0 38.373-125.53 225 225 0 0 0-94.131-182.79zM139.11 87.334a225 225 0 0 0-94.113 182.67 225 225 0 0 0 38.65 125.74l16.982-10.59a205 205 0 0 1-35.633-115.15 205 205 0 0 1 84.719-165.69z" fill="#ff2d2c"/><path d="M270 120a150 150 0 0 0-150 150 150 150 0 0 0 150 150 150 150 0 0 0 150-150 150 150 0 0 0-150-150zm0 34.777a115.22 115.22 0 0 1 115.22 115.22A115.22 115.22 0 0 1 270 385.217a115.22 115.22 0 0 1-115.22-115.22A115.22 115.22 0 0 1 270 154.777z" fill="#a8a8a8"/><path d="M270 145a125 125 0 0 0-125 125 125 125 0 0 0 125 125 125 125 0 0 0 125-125 125 125 0 0 0-125-125zm-9 17.939v63.02a45 45 0 0 0-9.6 3.127l-37.02-50.955A107.5 107.5 0 0 1 261 162.94zm18 .012a107.5 107.5 0 0 1 46.602 15.2l-36.998 50.923a45 45 0 0 0-9.604-3.162V162.95zm61.209 25.719a107.5 107.5 0 0 1 28.787 39.699l-59.9 19.463a45 45 0 0 0-5.93-8.178l37.043-50.984zm-140.38.062 37.004 50.932a45 45 0 0 0-5.96 8.162l-59.964-19.484a107.5 107.5 0 0 1 28.92-39.609zM269.997 240a30 30 0 0 1 30 30 30 30 0 0 1-30 30 30 30 0 0 1-30-30 30 30 0 0 1 30-30zm-104.55 5.492 59.863 19.451A45 45 0 0 0 225 270a45 45 0 0 0 .34 5.047l-59.878 19.455A107.5 107.5 0 0 1 162.5 270a107.5 107.5 0 0 1 2.948-24.508zm209.09.004A107.5 107.5 0 0 1 377.5 270a107.5 107.5 0 0 1-2.947 24.51l-59.863-19.45A45 45 0 0 0 315 270a45 45 0 0 0-.34-5.048l59.877-19.455zm-143.63 46.67a45 45 0 0 0 5.926 8.172l-37.043 50.986a107.5 107.5 0 0 1-28.781-39.695l59.898-19.463zm78.221.01 59.965 19.484a107.5 107.5 0 0 1-28.918 39.607l-37.006-50.932a45 45 0 0 0 5.959-8.16zm-20.521 18.738 37.021 50.955a107.5 107.5 0 0 1-46.623 15.191v-63.02a45 45 0 0 0 9.602-3.127zm-37.215.008a45 45 0 0 0 9.613 3.166v62.96a107.5 107.5 0 0 1-46.609-15.204l36.996-50.922z" fill="#7f7f7f"/><path d="M165.3 435.72a9.85 9.85 0 0 1 2.87 2.74 6.52 6.52 0 0 1 1.06 2.87 6.66 6.66 0 0 1-.36 2.85 12.1 12.1 0 0 1-1.33 2.64l-.12.19L150 460.86a14.86 14.86 0 0 1-3.63 1.17 20.38 20.38 0 0 1-4.16.38 17.92 17.92 0 0 1-4.2-.55 11.71 11.71 0 0 1-3.71-1.63l-15.68-10.49a7.21 7.21 0 0 1-2.3-2.4 8.67 8.67 0 0 1-1.11-3 8.44 8.44 0 0 1 0-3.09 7.69 7.69 0 0 1 1.13-2.78l17.5-13.94a15.28 15.28 0 0 1 3.75-1.09 22.23 22.23 0 0 1 4.25-.31 19.31 19.31 0 0 1 4.19.54 10.63 10.63 0 0 1 3.5 1.49zm-5.66 8.76a2.56 2.56 0 0 0 .89-.91 2.68 2.68 0 0 0 .26-2.64 6.11 6.11 0 0 0-2.42-2.64l-11.7-7.84a9 9 0 0 0-2.09-1 8.92 8.92 0 0 0-2.33-.46 7.92 7.92 0 0 0-2.29.18 5.28 5.28 0 0 0-1.96.83l-13.85 11-.36.38-.21.27a3 3 0 0 0-.26 2.84 5.35 5.35 0 0 0 2.18 2.7l11.7 7.83a7.12 7.12 0 0 0 2.16.93 12 12 0 0 0 2.49.36 10 10 0 0 0 2.31-.17 3.21 3.21 0 0 0 1.62-.73zM203.43 470l-.07.22-.53.55a.46.46 0 0 1-.45.19h-.56l-7.29-2.27a7.82 7.82 0 0 0-2.29-.33 10.44 10.44 0 0 0-2.44.29 8.87 8.87 0 0 0-2.17.81 4.44 4.44 0 0 0-1.5 1.27l-3.35 4.8-.2.48a3.49 3.49 0 0 0-.13 1.36 3.81 3.81 0 0 0 .43 1.48 4.69 4.69 0 0 0 1.08 1.32 5 5 0 0 0 1.8.95l13.66 4.26a1.48 1.48 0 0 0 .73 0 5 5 0 0 0 .69-.17l18-25.67a2 2 0 0 1 .73-.61 1.2 1.2 0 0 1 .93-.12l5 1.56c.4.12.53.42.38.89-.08.26-.14.4-.19.42l-21.16 30.12a2.41 2.41 0 0 1-.92.67 1.5 1.5 0 0 1-1.06.15l-22.7-7.08A8.58 8.58 0 0 1 177 484a8.07 8.07 0 0 1-2-2.31 7.46 7.46 0 0 1-.92-2.8 6.61 6.61 0 0 1 .25-2.9l.27-.7 5.14-7.29a9.24 9.24 0 0 1 2.84-2.61 18.28 18.28 0 0 1 4-1.81 21.81 21.81 0 0 1 4.43-.92 15 15 0 0 1 4 .08l-.74-10.62a.69.69 0 0 0 0-.2.68.68 0 0 1 0-.19l.17-.37a1 1 0 0 1 .68-.44l6.31 2c.55.17.81.47.8.91zm59.81 8.45a1 1 0 0 0 .76-.34 3.11 3.11 0 0 0 .54-.69l2.14-5.84v-.29a.8.8 0 0 0-.12-.49c-.09-.14-.29-.21-.59-.22l-20.27-.89a2.17 2.17 0 0 1-.85-.2c-.26-.13-.39-.29-.38-.48l1.62-4.49a1.37 1.37 0 0 1 .68-.54 2.39 2.39 0 0 1 1.07-.18l27.28 1.2a.79.79 0 0 1 .64.37 1.35 1.35 0 0 1 .23.81l-12.75 34.59a2.46 2.46 0 0 1-.72.88 1.53 1.53 0 0 1-1 .42l-27.39-1.19c-.76 0-1.13-.28-1.11-.74l1.62-4.43a1 1 0 0 1 .68-.54 2.6 2.6 0 0 1 1-.19l20.27.88a1.41 1.41 0 0 0 .72-.17 4 4 0 0 0 .61-.34l3.63-9.88a2.55 2.55 0 0 1 .13-.37 1 1 0 0 0 .07-.25c0-.31-.21-.47-.67-.49l-20.5-.89a1.77 1.77 0 0 1-.82-.23c-.24-.15-.35-.31-.34-.51l1.62-4.43a1.73 1.73 0 0 1 1.68-.73zm40.26 15.13a1.13 1.13 0 0 0-.14.44v.17c0 .14.14.2.32.16l20.38-4.35a1.76 1.76 0 0 1 .82 0c.29.08.45.21.49.39l-.44 4.7a1 1 0 0 1-.49.69 2.49 2.49 0 0 1-1 .45l-29.36 6.35c-.75.16-1.17 0-1.26-.43l.42-4.81a.7.7 0 0 0 .17-.39 1.58 1.58 0 0 1 .26-.58l24.09-30.46v-.4c0-.22-.25-.35-.58-.28l-19.72 4.26a1.89 1.89 0 0 1-.82 0c-.28-.05-.45-.18-.49-.36l.43-4.76a1.33 1.33 0 0 1 .52-.69 2.42 2.42 0 0 1 1-.45l29.36-6.34q1.11-.24 1.26.42l-.3 3.51a2.27 2.27 0 0 1-.46 1.09zm98.85-63.79c.65-.53 1.12-.61 1.4-.25l1.65 4.46a1 1 0 0 1-.17.87 3 3 0 0 1-.66.82l-5.48 4.38a7.22 7.22 0 0 0-1.74 2 11.18 11.18 0 0 0-1.05 2.26 8.32 8.32 0 0 0-.42 2.16 4.41 4.41 0 0 0 .19 1.71l2.11 5.46.2.39c0 .09.05.11 0 .08l.32.41a3 3 0 0 0 2.47 1.12 5.23 5.23 0 0 0 3.27-1.33l11.18-8.93a1.52 1.52 0 0 0 .43-.6 5.1 5.1 0 0 0 .24-.67l-11.16-29.31a1.87 1.87 0 0 1-.1-.94 1.26 1.26 0 0 1 .42-.85l4.1-3.27c.33-.26.64-.2.95.19q.25.3.24.39l13.11 34.4a2.38 2.38 0 0 1 0 1.14 1.51 1.51 0 0 1-.47 1l-18.57 14.83a8.38 8.38 0 0 1-2.92 1.56 7.82 7.82 0 0 1-3 .33 7.59 7.59 0 0 1-2.83-.8 6.68 6.68 0 0 1-2.27-1.84l-.42-.61-3.16-8.34a9 9 0 0 1-.6-4.09 19.12 19.12 0 0 1 .87-4.66 20.32 20.32 0 0 1 1.93-4.39 11.17 11.17 0 0 1 2.58-3.16z" fill="#ff2d2c" stroke="#ff2d2c" stroke-miterlimit="10" stroke-width="5"/><path d="M251.81 89.829c2.436-1.103 3.977-3.557 3.977-6.405 0-3.881-3.052-7.416-8.251-7.416h-24.54v21.56h11.926V90.61h3.9l3.592 6.956h13.378zm-10.083-4.44h-6.805v-4.563l6.805.022a2.27 2.27 0 1 1 0 4.541zm21.545 12.178h26.3v-4.816h-14.375v-3.173h14.375V84.38h-14.375v-3.173h14.375v-5.199h-26.3zm46.356-21.559h-11.927v21.559h24.006v-4.816h-12.078zm28.107 0H325.81v21.559h24.004v-4.816h-12.08zm23.654-19.673h-186.38V97.47h20.641V71.629l165.74.004a7.65 7.65 0 1 0 .001-15.298zm-22.896 10.082h-142.85v-4.879l142.85.014a2.433 2.433 0 1 1 0 4.865zm-135.99 31.15h11.926V76.008h-11.926zm152.28 0h11.927V76.008h-11.927z" clip-rule="evenodd" fill="#ff2d2c" fill-rule="evenodd"/></svg>